<svg xmlns="http://www.w3.org/2000/svg" version="1.1" viewBox="0.00 0.00 318.00 356.00" width="318.00" height="356.00">
<g stroke-width="2.00" fill="none" stroke-linecap="butt">
<path stroke="#eaf7d8" d="&#10;  M 87.63 57.04&#10;  Q 78.47 62.19 69.32 67.64&#10;  Q 59.39 73.55 49.26 79.12&#10;  Q 38.42 85.08 27.59 91.05&#10;  Q 22.57 93.82 18.86 98.02"/>
<path stroke="#def4dd" d="&#10;  M 18.86 98.02&#10;  Q 14.90 101.82 12.62 106.66&#10;  Q 10.85 110.43 10.42 116.69&#10;  Q 9.42 131.19 10.10 145.80"/>
<path stroke="#cfefe2" d="&#10;  M 10.10 145.80&#10;  L 9.91 205.53"/>
<path stroke="#c0eae9" d="&#10;  M 9.91 205.53&#10;  Q 9.90 229.36 9.87 253.19&#10;  Q 9.87 254.88 10.27 258.40"/>
<path stroke="#b5e7ed" d="&#10;  M 10.27 258.40&#10;  Q 12.31 272.81 25.14 279.76"/>
<path stroke="#afe6ef" d="&#10;  M 25.14 279.76&#10;  L 55.63 297.29"/>
<path stroke="#a7e3f3" d="&#10;  M 55.63 297.29&#10;  Q 89.19 316.52 122.64 335.61&#10;  C 130.59 340.14 138.86 345.47 146.86 349.27&#10;  Q 154.66 352.97 164.95 350.99&#10;  Q 168.43 350.33 176.01 346.14&#10;  Q 183.50 342.01 190.91 337.77&#10;  Q 227.09 317.04 263.29 296.25"/>
<path stroke="#afe6ef" d="&#10;  M 263.29 296.25&#10;  L 292.77 279.47"/>
<path stroke="#b5e7ed" d="&#10;  M 292.77 279.47&#10;  Q 307.02 271.11 307.47 254.30"/>
<path stroke="#c0eae9" d="&#10;  M 307.47 254.30&#10;  L 307.49 200.75"/>
<path stroke="#cfefe2" d="&#10;  M 307.49 200.75&#10;  L 307.49 158.97"/>
<path stroke="#def4dd" d="&#10;  M 307.49 158.97&#10;  Q 307.58 142.72 307.66 126.50&#10;  Q 307.70 116.66 306.91 112.81&#10;  Q 304.40 100.67 293.99 94.14"/>
<path stroke="#eaf7d8" d="&#10;  M 293.99 94.14&#10;  L 230.05 56.96"/>
<path stroke="#f4fad4" d="&#10;  M 230.05 56.96&#10;  C 224.10 53.43 217.82 50.35 212.03 46.82&#10;  Q 203.91 41.87 195.36 37.25&#10;  C 192.85 35.90 191.18 33.55 188.39 32.81&#10;  Q 185.25 31.97 182.58 30.16&#10;  Q 176.57 26.10 169.75 22.70&#10;  C 165.85 20.76 161.74 21.17 157.57 21.09&#10;  Q 153.36 21.01 148.74 22.87&#10;  C 141.28 25.88 134.93 30.42 127.95 34.18&#10;  Q 111.45 43.08 94.98 52.49&#10;  Q 91.27 54.60 87.63 57.04"/>
<path stroke="#def2ad" d="&#10;  M 230.05 56.96&#10;  Q 200.83 57.96 187.67 57.83&#10;  C 166.79 57.64 145.90 57.25 125.02 57.50&#10;  Q 106.37 57.73 87.63 57.04"/>
<path stroke="#c9ecb5" d="&#10;  M 293.99 94.14&#10;  Q 267.51 97.83 240.80 97.62&#10;  C 224.14 97.49 206.84 97.35 189.80 97.97&#10;  Q 177.66 98.42 164.34 98.73&#10;  C 143.64 99.22 122.97 97.94 102.32 97.94&#10;  Q 60.63 97.94 18.86 98.02"/>
<path stroke="#aee4bf" d="&#10;  M 307.49 158.97&#10;  Q 290.59 157.81 268.72 157.53&#10;  Q 246.08 157.23 225.31 161.74"/>
<path stroke="#def4dd" d="&#10;  M 225.31 161.74&#10;  L 225.19 117.23&#10;  A 1.36 1.36 0.0 0 0 223.83 115.87&#10;  Q 194.12 115.83 162.75 115.97&#10;  Q 161.89 115.98 161.23 115.53&#10;  A 0.90 0.89 30.7 0 1 160.93 114.37&#10;  Q 164.27 107.95 167.97 102.59&#10;  A 1.16 1.15 17.4 0 0 167.02 100.78&#10;  L 148.12 100.68&#10;  Q 146.17 100.67 145.29 102.41&#10;  Q 142.84 107.28 139.80 111.91&#10;  C 137.77 115.00 137.43 117.91 137.43 121.52&#10;  C 137.45 129.74 138.13 138.10 138.07 146.33&#10;  Q 137.94 163.37 137.65 180.52"/>
<path stroke="#9fdfc6" d="&#10;  M 137.65 180.52&#10;  L 137.54 176.05&#10;  Q 137.52 175.15 136.65 174.91&#10;  L 132.88 173.88&#10;  Q 132.09 173.67 132.04 174.49&#10;  L 131.85 177.46"/>
<path stroke="#def4dd" d="&#10;  M 131.85 177.46&#10;  Q 131.93 161.23 131.72 145.02&#10;  C 131.60 135.67 132.28 126.99 132.00 117.86&#10;  Q 131.90 114.54 132.34 111.56&#10;  A 1.37 1.37 0.0 0 0 130.99 109.99&#10;  L 83.78 109.99&#10;  A 1.21 1.21 0.0 0 0 82.57 111.19&#10;  L 82.27 142.64"/>
<path stroke="#aee4bf" d="&#10;  M 82.27 142.64&#10;  C 58.02 140.99 34.01 141.93 10.10 145.80"/>
<path stroke="#c0eae9" d="&#10;  M 131.85 177.46&#10;  L 131.69 247.05"/>
<path stroke="#b5e7ed" d="&#10;  M 131.69 247.05&#10;  L 131.97 261.50&#10;  Q 131.99 262.54 130.95 262.55&#10;  Q 118.39 262.60 106.24 262.70&#10;  Q 95.73 262.78 88.56 255.24"/>
<path stroke="#c0eae9" d="&#10;  M 88.56 255.24&#10;  Q 82.59 248.35 82.55 240.50&#10;  Q 82.45 220.78 82.39 201.30"/>
<path stroke="#cfefe2" d="&#10;  M 82.39 201.30&#10;  L 82.27 142.64"/>
<path stroke="#90dacb" d="&#10;  M 82.39 201.30&#10;  L 10.55 202.99&#10;  Q 10.04 203.01 10.02 203.51&#10;  L 9.91 205.53"/>
<path stroke="#76d2d6" d="&#10;  M 215.75 246.73&#10;  L 205.91 242.03"/>
<path stroke="#c0eae9" d="&#10;  M 205.91 242.03&#10;  L 205.73 227.97&#10;  Q 205.72 226.78 204.53 226.79&#10;  L 138.27 226.89&#10;  A 0.85 0.84 89.7 0 0 137.43 227.75&#10;  L 137.62 241.06&#10;  A 1.20 1.19 89.3 0 0 138.82 242.24&#10;  L 141.77 242.24"/>
<path stroke="#76d2d6" d="&#10;  M 141.77 242.24&#10;  Q 136.12 243.57 131.69 247.05"/>
<path stroke="#90dacb" d="&#10;  M 307.49 200.75&#10;  C 283.14 198.73 259.07 198.06 234.86 201.77"/>
<path stroke="#cfefe2" d="&#10;  M 225.31 161.74&#10;  Q 225.08 171.04 220.46 178.99&#10;  C 219.45 180.75 218.08 180.90 216.26 180.97&#10;  Q 209.01 181.24 201.69 180.96&#10;  A 0.86 0.86 0.0 0 1 200.98 179.68&#10;  Q 206.04 170.72 206.18 159.49&#10;  Q 206.34 145.96 206.12 132.41&#10;  A 1.23 1.23 0.0 0 0 204.89 131.20&#10;  L 158.02 131.03&#10;  A 0.44 0.43 2.9 0 0 157.58 131.42&#10;  Q 157.16 135.61 157.14 139.18&#10;  Q 156.99 161.50 157.15 186.04&#10;  Q 157.16 186.82 157.95 186.83&#10;  L 234.46 186.87&#10;  A 0.54 0.53 90.0 0 1 234.99 187.41&#10;  L 234.86 201.77"/>
<path stroke="#c0eae9" d="&#10;  M 234.86 201.77&#10;  L 234.59 254.25"/>
<path stroke="#b5e7ed" d="&#10;  M 234.59 254.25&#10;  Q 233.19 263.46 228.77 271.51&#10;  A 0.94 0.94 0.0 0 1 227.95 271.99&#10;  L 209.98 272.09&#10;  A 0.32 0.32 0.0 0 1 209.70 271.61&#10;  Q 216.48 260.21 215.75 246.73"/>
<path stroke="#c0eae9" d="&#10;  M 215.75 246.73&#10;  L 215.79 203.28&#10;  Q 215.79 202.06 214.57 202.06&#10;  Q 186.82 202.02 161.90 202.06&#10;  C 148.69 202.08 138.81 193.56 137.65 180.52"/>
<path stroke="#65cedd" d="&#10;  M 292.77 279.47&#10;  C 264.42 274.28 237.21 275.43 209.63 275.24&#10;  C 185.47 275.07 161.42 275.54 136.85 275.74&#10;  C 114.57 275.92 92.35 275.37 69.91 275.01&#10;  Q 45.87 274.62 25.14 279.76"/>
<path stroke="#76d2d6" d="&#10;  M 88.56 255.24&#10;  C 61.98 252.08 36.47 252.40 10.27 258.40"/>
<path stroke="#b5e7ed" d="&#10;  M 205.91 242.03&#10;  L 141.77 242.24"/>
<path stroke="#76d2d6" d="&#10;  M 307.47 254.30&#10;  Q 287.34 248.83 266.73 250.34&#10;  Q 250.52 251.52 234.59 254.25"/>
<path stroke="#56c9e3" d="&#10;  M 263.29 296.25&#10;  Q 251.36 295.26 247.90 295.27&#10;  Q 179.31 295.40 110.74 294.49&#10;  Q 83.18 294.12 55.63 297.29"/>
<path stroke="#cfefe2" d="&#10;  M 112.79 126.78&#10;  A 1.13 1.13 0.0 0 0 111.66 125.65&#10;  L 102.65 125.65&#10;  A 1.13 1.13 0.0 0 0 101.52 126.78&#10;  L 101.36 246.48&#10;  A 1.13 1.13 0.0 0 0 102.49 247.61&#10;  L 111.94 247.60&#10;  A 1.13 1.13 0.0 0 0 113.07 246.47&#10;  L 112.79 126.78"/>
<path stroke="#cfefe2" d="&#10;  M 173.18 169.39&#10;  A 0.95 0.95 0.0 0 0 174.10 170.08&#10;  L 194.16 170.12&#10;  A 0.95 0.95 0.0 0 0 195.08 168.91&#10;  L 187.37 141.66&#10;  A 0.95 0.95 0.0 0 0 186.45 140.97&#10;  L 166.39 140.93&#10;  A 0.95 0.95 0.0 0 0 165.47 142.14&#10;  L 173.18 169.39"/>
</g>
<path fill="#ffffff" d="&#10;  M 318.00 0.00&#10;  L 318.00 356.00&#10;  L 0.00 356.00&#10;  L 0.00 0.00&#10;  L 318.00 0.00&#10;  Z&#10;  M 87.63 57.04&#10;  Q 78.47 62.19 69.32 67.64&#10;  Q 59.39 73.55 49.26 79.12&#10;  Q 38.42 85.08 27.59 91.05&#10;  Q 22.57 93.82 18.86 98.02&#10;  Q 14.90 101.82 12.62 106.66&#10;  Q 10.85 110.43 10.42 116.69&#10;  Q 9.42 131.19 10.10 145.80&#10;  L 9.91 205.53&#10;  Q 9.90 229.36 9.87 253.19&#10;  Q 9.87 254.88 10.27 258.40&#10;  Q 12.31 272.81 25.14 279.76&#10;  L 55.63 297.29&#10;  Q 89.19 316.52 122.64 335.61&#10;  C 130.59 340.14 138.86 345.47 146.86 349.27&#10;  Q 154.66 352.97 164.95 350.99&#10;  Q 168.43 350.33 176.01 346.14&#10;  Q 183.50 342.01 190.91 337.77&#10;  Q 227.09 317.04 263.29 296.25&#10;  L 292.77 279.47&#10;  Q 307.02 271.11 307.47 254.30&#10;  L 307.49 200.75&#10;  L 307.49 158.97&#10;  Q 307.58 142.72 307.66 126.50&#10;  Q 307.70 116.66 306.91 112.81&#10;  Q 304.40 100.67 293.99 94.14&#10;  L 230.05 56.96&#10;  C 224.10 53.43 217.82 50.35 212.03 46.82&#10;  Q 203.91 41.87 195.36 37.25&#10;  C 192.85 35.90 191.18 33.55 188.39 32.81&#10;  Q 185.25 31.97 182.58 30.16&#10;  Q 176.57 26.10 169.75 22.70&#10;  C 165.85 20.76 161.74 21.17 157.57 21.09&#10;  Q 153.36 21.01 148.74 22.87&#10;  C 141.28 25.88 134.93 30.42 127.95 34.18&#10;  Q 111.45 43.08 94.98 52.49&#10;  Q 91.27 54.60 87.63 57.04&#10;  Z"/>
<path fill="#e8f5a9" d="&#10;  M 230.05 56.96&#10;  Q 200.83 57.96 187.67 57.83&#10;  C 166.79 57.64 145.90 57.25 125.02 57.50&#10;  Q 106.37 57.73 87.63 57.04&#10;  Q 91.27 54.60 94.98 52.49&#10;  Q 111.45 43.08 127.95 34.18&#10;  C 134.93 30.42 141.28 25.88 148.74 22.87&#10;  Q 153.36 21.01 157.57 21.09&#10;  C 161.74 21.17 165.85 20.76 169.75 22.70&#10;  Q 176.57 26.10 182.58 30.16&#10;  Q 185.25 31.97 188.39 32.81&#10;  C 191.18 33.55 192.85 35.90 195.36 37.25&#10;  Q 203.91 41.87 212.03 46.82&#10;  C 217.82 50.35 224.10 53.43 230.05 56.96&#10;  Z"/>
<path fill="#d4efb0" d="&#10;  M 230.05 56.96&#10;  L 293.99 94.14&#10;  Q 267.51 97.83 240.80 97.62&#10;  C 224.14 97.49 206.84 97.35 189.80 97.97&#10;  Q 177.66 98.42 164.34 98.73&#10;  C 143.64 99.22 122.97 97.94 102.32 97.94&#10;  Q 60.63 97.94 18.86 98.02&#10;  Q 22.57 93.82 27.59 91.05&#10;  Q 38.42 85.08 49.26 79.12&#10;  Q 59.39 73.55 69.32 67.64&#10;  Q 78.47 62.19 87.63 57.04&#10;  Q 106.37 57.73 125.02 57.50&#10;  C 145.90 57.25 166.79 57.64 187.67 57.83&#10;  Q 200.83 57.96 230.05 56.96&#10;  Z"/>
<path fill="#bde8ba" d="&#10;  M 293.99 94.14&#10;  Q 304.40 100.67 306.91 112.81&#10;  Q 307.70 116.66 307.66 126.50&#10;  Q 307.58 142.72 307.49 158.97&#10;  Q 290.59 157.81 268.72 157.53&#10;  Q 246.08 157.23 225.31 161.74&#10;  L 225.19 117.23&#10;  A 1.36 1.36 0.0 0 0 223.83 115.87&#10;  Q 194.12 115.83 162.75 115.97&#10;  Q 161.89 115.98 161.23 115.53&#10;  A 0.90 0.89 30.7 0 1 160.93 114.37&#10;  Q 164.27 107.95 167.97 102.59&#10;  A 1.16 1.15 17.4 0 0 167.02 100.78&#10;  L 148.12 100.68&#10;  Q 146.17 100.67 145.29 102.41&#10;  Q 142.84 107.28 139.80 111.91&#10;  C 137.77 115.00 137.43 117.91 137.43 121.52&#10;  C 137.45 129.74 138.13 138.10 138.07 146.33&#10;  Q 137.94 163.37 137.65 180.52&#10;  L 137.54 176.05&#10;  Q 137.52 175.15 136.65 174.91&#10;  L 132.88 173.88&#10;  Q 132.09 173.67 132.04 174.49&#10;  L 131.85 177.46&#10;  Q 131.93 161.23 131.72 145.02&#10;  C 131.60 135.67 132.28 126.99 132.00 117.86&#10;  Q 131.90 114.54 132.34 111.56&#10;  A 1.37 1.37 0.0 0 0 130.99 109.99&#10;  L 83.78 109.99&#10;  A 1.21 1.21 0.0 0 0 82.57 111.19&#10;  L 82.27 142.64&#10;  C 58.02 140.99 34.01 141.93 10.10 145.80&#10;  Q 9.42 131.19 10.42 116.69&#10;  Q 10.85 110.43 12.62 106.66&#10;  Q 14.90 101.82 18.86 98.02&#10;  Q 60.63 97.94 102.32 97.94&#10;  C 122.97 97.94 143.64 99.22 164.34 98.73&#10;  Q 177.66 98.42 189.80 97.97&#10;  C 206.84 97.35 224.14 97.49 240.80 97.62&#10;  Q 267.51 97.83 293.99 94.14&#10;  Z"/>
<path fill="#ffffff" d="&#10;  M 225.31 161.74&#10;  Q 225.08 171.04 220.46 178.99&#10;  C 219.45 180.75 218.08 180.90 216.26 180.97&#10;  Q 209.01 181.24 201.69 180.96&#10;  A 0.86 0.86 0.0 0 1 200.98 179.68&#10;  Q 206.04 170.72 206.18 159.49&#10;  Q 206.34 145.96 206.12 132.41&#10;  A 1.23 1.23 0.0 0 0 204.89 131.20&#10;  L 158.02 131.03&#10;  A 0.44 0.43 2.9 0 0 157.58 131.42&#10;  Q 157.16 135.61 157.14 139.18&#10;  Q 156.99 161.50 157.15 186.04&#10;  Q 157.16 186.82 157.95 186.83&#10;  L 234.46 186.87&#10;  A 0.54 0.53 90.0 0 1 234.99 187.41&#10;  L 234.86 201.77&#10;  L 234.59 254.25&#10;  Q 233.19 263.46 228.77 271.51&#10;  A 0.94 0.94 0.0 0 1 227.95 271.99&#10;  L 209.98 272.09&#10;  A 0.32 0.32 0.0 0 1 209.70 271.61&#10;  Q 216.48 260.21 215.75 246.73&#10;  L 215.79 203.28&#10;  Q 215.79 202.06 214.57 202.06&#10;  Q 186.82 202.02 161.90 202.06&#10;  C 148.69 202.08 138.81 193.56 137.65 180.52&#10;  Q 137.94 163.37 138.07 146.33&#10;  C 138.13 138.10 137.45 129.74 137.43 121.52&#10;  C 137.43 117.91 137.77 115.00 139.80 111.91&#10;  Q 142.84 107.28 145.29 102.41&#10;  Q 146.17 100.67 148.12 100.68&#10;  L 167.02 100.78&#10;  A 1.16 1.15 17.4 0 1 167.97 102.59&#10;  Q 164.27 107.95 160.93 114.37&#10;  A 0.90 0.89 30.7 0 0 161.23 115.53&#10;  Q 161.89 115.98 162.75 115.97&#10;  Q 194.12 115.83 223.83 115.87&#10;  A 1.36 1.36 0.0 0 1 225.19 117.23&#10;  L 225.31 161.74&#10;  Z"/>
<path fill="#ffffff" d="&#10;  M 131.85 177.46&#10;  L 131.69 247.05&#10;  L 131.97 261.50&#10;  Q 131.99 262.54 130.95 262.55&#10;  Q 118.39 262.60 106.24 262.70&#10;  Q 95.73 262.78 88.56 255.24&#10;  Q 82.59 248.35 82.55 240.50&#10;  Q 82.45 220.78 82.39 201.30&#10;  L 82.27 142.64&#10;  L 82.57 111.19&#10;  A 1.21 1.21 0.0 0 1 83.78 109.99&#10;  L 130.99 109.99&#10;  A 1.37 1.37 0.0 0 1 132.34 111.56&#10;  Q 131.90 114.54 132.00 117.86&#10;  C 132.28 126.99 131.60 135.67 131.72 145.02&#10;  Q 131.93 161.23 131.85 177.46&#10;  Z&#10;  M 112.79 126.78&#10;  A 1.13 1.13 0.0 0 0 111.66 125.65&#10;  L 102.65 125.65&#10;  A 1.13 1.13 0.0 0 0 101.52 126.78&#10;  L 101.36 246.48&#10;  A 1.13 1.13 0.0 0 0 102.49 247.61&#10;  L 111.94 247.60&#10;  A 1.13 1.13 0.0 0 0 113.07 246.47&#10;  L 112.79 126.78&#10;  Z"/>
<path fill="#9fdfc4" d="&#10;  M 112.79 126.78&#10;  L 113.07 246.47&#10;  A 1.13 1.13 0.0 0 1 111.94 247.60&#10;  L 102.49 247.61&#10;  A 1.13 1.13 0.0 0 1 101.36 246.48&#10;  L 101.52 126.78&#10;  A 1.13 1.13 0.0 0 1 102.65 125.65&#10;  L 111.66 125.65&#10;  A 1.13 1.13 0.0 0 1 112.79 126.78&#10;  Z"/>
<path fill="#9fdfc4" d="&#10;  M 225.31 161.74&#10;  Q 246.08 157.23 268.72 157.53&#10;  Q 290.59 157.81 307.49 158.97&#10;  L 307.49 200.75&#10;  C 283.14 198.73 259.07 198.06 234.86 201.77&#10;  L 234.99 187.41&#10;  A 0.54 0.53 90.0 0 0 234.46 186.87&#10;  L 157.95 186.83&#10;  Q 157.16 186.82 157.15 186.04&#10;  Q 156.99 161.50 157.14 139.18&#10;  Q 157.16 135.61 157.58 131.42&#10;  A 0.44 0.43 2.9 0 1 158.02 131.03&#10;  L 204.89 131.20&#10;  A 1.23 1.23 0.0 0 1 206.12 132.41&#10;  Q 206.34 145.96 206.18 159.49&#10;  Q 206.04 170.72 200.98 179.68&#10;  A 0.86 0.86 0.0 0 0 201.69 180.96&#10;  Q 209.01 181.24 216.26 180.97&#10;  C 218.08 180.90 219.45 180.75 220.46 178.99&#10;  Q 225.08 171.04 225.31 161.74&#10;  Z&#10;  M 173.18 169.39&#10;  A 0.95 0.95 0.0 0 0 174.10 170.08&#10;  L 194.16 170.12&#10;  A 0.95 0.95 0.0 0 0 195.08 168.91&#10;  L 187.37 141.66&#10;  A 0.95 0.95 0.0 0 0 186.45 140.97&#10;  L 166.39 140.93&#10;  A 0.95 0.95 0.0 0 0 165.47 142.14&#10;  L 173.18 169.39&#10;  Z"/>
<path fill="#9fdfc4" d="&#10;  M 82.27 142.64&#10;  L 82.39 201.30&#10;  L 10.55 202.99&#10;  Q 10.04 203.01 10.02 203.51&#10;  L 9.91 205.53&#10;  L 10.10 145.80&#10;  C 34.01 141.93 58.02 140.99 82.27 142.64&#10;  Z"/>
<path fill="#ffffff" d="&#10;  M 173.18 169.39&#10;  L 165.47 142.14&#10;  A 0.95 0.95 0.0 0 1 166.39 140.93&#10;  L 186.45 140.97&#10;  A 0.95 0.95 0.0 0 1 187.37 141.66&#10;  L 195.08 168.91&#10;  A 0.95 0.95 0.0 0 1 194.16 170.12&#10;  L 174.10 170.08&#10;  A 0.95 0.95 0.0 0 1 173.18 169.39&#10;  Z"/>
<path fill="#80d5d2" d="&#10;  M 137.65 180.52&#10;  C 138.81 193.56 148.69 202.08 161.90 202.06&#10;  Q 186.82 202.02 214.57 202.06&#10;  Q 215.79 202.06 215.79 203.28&#10;  L 215.75 246.73&#10;  L 205.91 242.03&#10;  L 205.73 227.97&#10;  Q 205.72 226.78 204.53 226.79&#10;  L 138.27 226.89&#10;  A 0.85 0.84 89.7 0 0 137.43 227.75&#10;  L 137.62 241.06&#10;  A 1.20 1.19 89.3 0 0 138.82 242.24&#10;  L 141.77 242.24&#10;  Q 136.12 243.57 131.69 247.05&#10;  L 131.85 177.46&#10;  L 132.04 174.49&#10;  Q 132.09 173.67 132.88 173.88&#10;  L 136.65 174.91&#10;  Q 137.52 175.15 137.54 176.05&#10;  L 137.65 180.52&#10;  Z"/>
<path fill="#80d5d2" d="&#10;  M 307.49 200.75&#10;  L 307.47 254.30&#10;  Q 287.34 248.83 266.73 250.34&#10;  Q 250.52 251.52 234.59 254.25&#10;  L 234.86 201.77&#10;  C 259.07 198.06 283.14 198.73 307.49 200.75&#10;  Z"/>
<path fill="#80d5d2" d="&#10;  M 82.39 201.30&#10;  Q 82.45 220.78 82.55 240.50&#10;  Q 82.59 248.35 88.56 255.24&#10;  C 61.98 252.08 36.47 252.40 10.27 258.40&#10;  Q 9.87 254.88 9.87 253.19&#10;  Q 9.90 229.36 9.91 205.53&#10;  L 10.02 203.51&#10;  Q 10.04 203.01 10.55 202.99&#10;  L 82.39 201.30&#10;  Z"/>
<path fill="#ffffff" d="&#10;  M 205.91 242.03&#10;  L 141.77 242.24&#10;  L 138.82 242.24&#10;  A 1.20 1.19 89.3 0 1 137.62 241.06&#10;  L 137.43 227.75&#10;  A 0.85 0.84 89.7 0 1 138.27 226.89&#10;  L 204.53 226.79&#10;  Q 205.72 226.78 205.73 227.97&#10;  L 205.91 242.03&#10;  Z"/>
<path fill="#6bcfda" d="&#10;  M 215.75 246.73&#10;  Q 216.48 260.21 209.70 271.61&#10;  A 0.32 0.32 0.0 0 0 209.98 272.09&#10;  L 227.95 271.99&#10;  A 0.94 0.94 0.0 0 0 228.77 271.51&#10;  Q 233.19 263.46 234.59 254.25&#10;  Q 250.52 251.52 266.73 250.34&#10;  Q 287.34 248.83 307.47 254.30&#10;  Q 307.02 271.11 292.77 279.47&#10;  C 264.42 274.28 237.21 275.43 209.63 275.24&#10;  C 185.47 275.07 161.42 275.54 136.85 275.74&#10;  C 114.57 275.92 92.35 275.37 69.91 275.01&#10;  Q 45.87 274.62 25.14 279.76&#10;  Q 12.31 272.81 10.27 258.40&#10;  C 36.47 252.40 61.98 252.08 88.56 255.24&#10;  Q 95.73 262.78 106.24 262.70&#10;  Q 118.39 262.60 130.95 262.55&#10;  Q 131.99 262.54 131.97 261.50&#10;  L 131.69 247.05&#10;  Q 136.12 243.57 141.77 242.24&#10;  L 205.91 242.03&#10;  L 215.75 246.73&#10;  Z"/>
<path fill="#5eccdf" d="&#10;  M 292.77 279.47&#10;  L 263.29 296.25&#10;  Q 251.36 295.26 247.90 295.27&#10;  Q 179.31 295.40 110.74 294.49&#10;  Q 83.18 294.12 55.63 297.29&#10;  L 25.14 279.76&#10;  Q 45.87 274.62 69.91 275.01&#10;  C 92.35 275.37 114.57 275.92 136.85 275.74&#10;  C 161.42 275.54 185.47 275.07 209.63 275.24&#10;  C 237.21 275.43 264.42 274.28 292.77 279.47&#10;  Z"/>
<path fill="#4ec6e6" d="&#10;  M 263.29 296.25&#10;  Q 227.09 317.04 190.91 337.77&#10;  Q 183.50 342.01 176.01 346.14&#10;  Q 168.43 350.33 164.95 350.99&#10;  Q 154.66 352.97 146.86 349.27&#10;  C 138.86 345.47 130.59 340.14 122.64 335.61&#10;  Q 89.19 316.52 55.63 297.29&#10;  Q 83.18 294.12 110.74 294.49&#10;  Q 179.31 295.40 247.90 295.27&#10;  Q 251.36 295.26 263.29 296.25&#10;  Z"/>
</svg>